<?xml version="1.0" standalone="no"?>
<!DOCTYPE svg PUBLIC "-//W3C//DTD SVG 20010904//EN"
 "http://www.w3.org/TR/2001/REC-SVG-20010904/DTD/svg10.dtd">
<svg version="1.0" xmlns="http://www.w3.org/2000/svg"
 width="136.000000pt" height="141.000000pt" viewBox="0 0 136.000000 141.000000"
 preserveAspectRatio="xMidYMid meet">

<g transform="translate(0.000000,141.000000) scale(0.100000,-0.100000)"
fill="#000000" stroke="none">
<path d="M354 1387 c-22 -19 -28 -35 -34 -88 -4 -35 -8 -49 -9 -31 0 17 -4 32
-9 32 -4 0 -24 -14 -44 -30 -34 -28 -37 -34 -41 -98 -2 -37 -12 -93 -21 -125
-16 -55 -16 -61 0 -103 12 -33 15 -59 10 -100 -10 -88 -14 -90 -79 -32 -32 28
-60 49 -62 46 -5 -5 21 -99 41 -146 8 -18 14 -45 14 -60 0 -42 69 -151 100
-159 46 -11 55 -47 13 -58 -31 -8 -75 -36 -121 -79 -27 -25 -39 -30 -72 -27
l-40 3 0 -166 0 -166 145 0 c121 0 143 2 139 14 -4 11 0 13 15 9 12 -3 24 -9
27 -14 3 -5 123 -9 267 -9 166 0 257 4 247 10 -18 11 -8 22 33 36 18 6 31 15
29 20 -2 4 4 11 14 14 18 7 21 17 28 101 3 46 26 103 33 83 2 -6 -5 -51 -16
-100 -11 -49 -18 -90 -15 -93 2 -2 16 2 32 9 15 8 32 16 37 19 6 2 1 -6 -10
-19 -11 -12 -47 -36 -80 -51 l-60 -29 248 0 247 0 0 224 0 225 -32 4 -33 4 33
13 c17 8 32 20 32 27 0 20 -55 16 -96 -7 -31 -18 -51 -20 -130 -18 -52 2 -94
5 -94 8 0 3 3 16 7 28 5 20 11 23 34 18 47 -9 85 12 139 77 41 50 48 64 36 71
-12 8 -10 16 11 47 16 24 23 45 18 58 -3 11 1 33 9 50 16 30 21 71 10 71 -10
0 -187 -131 -202 -149 -9 -11 -15 -12 -23 -4 -14 14 9 37 75 75 57 34 75 71
51 110 -8 15 -14 39 -13 55 1 15 -10 49 -25 76 -20 36 -23 47 -12 47 20 0 19
2 -11 65 -28 61 -76 105 -147 137 -41 19 -46 24 -33 34 24 17 20 22 -23 29
-22 4 -45 13 -52 21 -9 11 -57 14 -260 14 -245 0 -248 0 -275 -23z m209 -185
c-30 -16 -33 -14 -26 20 5 27 6 27 28 10 l23 -17 -25 -13z m134 14 c-12 -18
-25 -29 -28 -24 -3 5 -19 13 -35 18 -28 8 -27 8 12 9 24 1 47 7 54 16 21 26
20 16 -3 -19z m-183 -1 c-4 -8 -11 -15 -16 -15 -6 0 -5 6 2 15 7 8 14 15 16
15 2 0 1 -7 -2 -15z m249 -8 c-2 -12 -15 -27 -29 -34 -27 -13 -25 -3 9 35 25
27 25 27 20 -1z m98 -56 c-8 -5 -20 -7 -28 -4 -21 8 -15 13 15 13 20 0 23 -3
13 -9z m-183 -117 c-2 -19 0 -34 4 -34 4 0 8 3 8 8 1 4 12 21 26 37 l26 30 -6
-28 c-6 -25 -4 -28 13 -22 20 6 20 5 6 -28 -8 -19 -24 -52 -36 -73 l-21 -39
27 30 c36 38 75 65 98 65 13 0 6 -17 -35 -79 l-52 -78 -72 -21 c-57 -17 -73
-26 -78 -44 -9 -34 -7 -73 3 -102 9 -23 12 -24 41 -13 16 6 32 18 35 27 8 26
87 80 116 80 34 0 59 -9 59 -22 0 -6 -16 -7 -39 -3 -36 6 -43 3 -78 -30 -22
-21 -30 -34 -20 -31 10 3 25 6 32 6 8 0 17 9 20 20 8 25 33 27 31 3 -1 -12 4
-16 14 -13 8 2 36 5 62 6 25 1 55 5 66 8 26 8 24 -21 -1 -36 -10 -5 -15 -13
-12 -19 4 -5 0 -9 -8 -9 -8 0 -28 -13 -45 -28 -27 -25 -28 -29 -14 -40 15 -10
15 -12 -5 -18 -13 -3 -23 -14 -23 -24 0 -9 -6 -30 -14 -46 -35 -72 -56 -124
-56 -138 0 -24 -29 -35 -64 -24 -37 11 -161 1 -196 -16 -31 -15 -58 -10 -64
12 -15 57 -16 72 -4 72 9 0 8 3 -2 10 -11 8 -12 12 -3 18 10 6 12 96 4 141 -1
2 -8 -2 -16 -9 -8 -6 -23 -9 -34 -5 -10 3 -22 1 -26 -5 -11 -18 -25 -11 -25
13 0 13 -13 36 -30 52 -16 15 -27 32 -24 37 3 4 0 8 -5 8 -6 0 -11 5 -11 10 0
17 25 11 49 -11 23 -22 61 -27 101 -14 27 9 17 23 -12 18 -13 -2 -37 1 -53 7
-27 11 -28 13 -10 20 11 4 20 13 20 20 0 7 6 15 14 18 10 3 12 0 8 -11 -6 -16
18 -31 35 -21 5 3 18 -2 29 -12 18 -16 19 -16 19 1 0 14 3 16 11 8 7 -7 13
-45 14 -85 2 -40 3 -81 4 -90 1 -10 1 -29 0 -44 -2 -27 32 -70 62 -79 12 -4
33 8 65 39 44 42 46 47 39 83 -12 66 -45 82 -45 22 0 -47 -26 -89 -55 -89 -28
0 -28 1 -29 210 -1 106 -21 142 -87 156 -38 8 -46 15 -77 67 -23 41 -31 62
-24 69 7 7 19 2 36 -18 14 -16 26 -32 26 -35 0 -4 7 -9 15 -13 10 -4 7 6 -9
32 -27 42 -39 92 -26 112 7 11 14 12 35 2 14 -7 33 -12 42 -12 13 0 13 3 -2
28 l-18 27 33 -30 c24 -22 34 -26 38 -16 3 10 9 8 23 -10 l19 -24 19 24 c10
13 22 21 27 18 5 -3 27 12 49 34 42 42 50 39 43 -17z m247 -107 c-25 -15 -76
-65 -95 -94 -12 -16 -22 -20 -46 -16 l-31 5 51 50 c54 54 76 67 116 67 24 0
24 -1 5 -12z m-590 -87 c10 -11 15 -23 12 -27 -8 -7 -47 25 -47 39 0 14 16 9
35 -12z m61 -113 c3 -2 -16 -3 -41 -3 -43 1 -59 10 -32 19 11 4 65 -8 73 -16z
m-116 -347 c0 -34 -3 -36 -73 -45 -45 -6 -47 -5 -37 12 16 26 71 63 92 63 13
0 18 -8 18 -30z m450 -110 c0 -5 -4 -10 -10 -10 -5 0 -10 5 -10 10 0 6 5 10
10 10 6 0 10 -4 10 -10z m350 -69 c16 -39 9 -106 -10 -106 -11 0 -14 10 -12
41 2 23 -4 58 -12 79 -9 21 -16 40 -16 43 0 13 39 -32 50 -57z m-430 3 c37
-15 54 -34 30 -34 -5 0 -10 -11 -10 -24 0 -25 -28 -36 -94 -36 -30 0 -31 1
-31 45 0 39 3 46 25 54 35 13 35 13 80 -5z m515 -105 c28 -19 28 -20 5 -14
-26 7 -62 35 -45 35 6 0 24 -9 40 -21z"/>
<path d="M820 664 c-14 -7 -35 -14 -47 -14 -13 0 -23 -4 -23 -10 0 -5 12 -10
26 -10 30 0 94 28 94 41 0 12 -20 10 -50 -7z"/>
<path d="M571 504 c0 -11 3 -14 6 -6 3 7 2 16 -1 19 -3 4 -6 -2 -5 -13z"/>
</g>
</svg>
